HIERARCHY
ROOT Hips
{
	OFFSET 0.000000 0.000000 0.000000
	CHANNELS 6 Xposition Yposition Zposition Xrotation Yrotation Zrotation
	JOINT LeftUpLeg_virtual
	{
		OFFSET 0.000000 0.000000 0.000000
		CHANNELS 3 Xrotation Yrotation Zrotation
		JOINT LeftUpLeg
		{
			OFFSET 15.427100 -6.655098 0.678600
			CHANNELS 3 Xrotation Yrotation Zrotation
			JOINT LeftLeg
			{
				OFFSET 4.081073 -39.591068 13.024000
				CHANNELS 3 Xrotation Yrotation Zrotation
				JOINT LeftFoot
				{
					OFFSET -4.081074 -37.707932 -15.979700
					CHANNELS 3 Xrotation Yrotation Zrotation
					JOINT LeftToeBase
					{
						OFFSET 5.346399 -15.068900 20.645000
						CHANNELS 3 Xrotation Yrotation Zrotation
						JOINT LeftToe_End
						{
							OFFSET 2.754700 0.931300 11.300900
							CHANNELS 3 Xrotation Yrotation Zrotation
							End Site
							{
								OFFSET 0 0 0
							}
						}
					}
				}
			}
		}
	}
	JOINT RightUpLeg_virtual
	{
		OFFSET 0.000000 0.000000 0.000000
		CHANNELS 3 Xrotation Yrotation Zrotation
		JOINT RightUpLeg
		{
			OFFSET -15.569500 -6.655098 0.678600
			CHANNELS 3 Xrotation Yrotation Zrotation
			JOINT RightLeg
			{
				OFFSET -4.081825 -39.591045 13.023800
				CHANNELS 3 Xrotation Yrotation Zrotation
				JOINT RightFoot
				{
					OFFSET 4.081824 -37.707954 -15.979600
					CHANNELS 3 Xrotation Yrotation Zrotation
					JOINT RightToeBase
					{
						OFFSET -5.346400 -15.068900 20.645000
						CHANNELS 3 Xrotation Yrotation Zrotation
						JOINT RightToe_End
						{
							OFFSET -2.754700 0.931300 11.300900
							CHANNELS 3 Xrotation Yrotation Zrotation
							End Site
							{
								OFFSET 0 0 0
							}
						}
					}
				}
			}
		}
	}
	JOINT Spine_virtual
	{
		OFFSET 0.000000 0.000000 0.000000
		CHANNELS 3 Xrotation Yrotation Zrotation
		JOINT Spine
		{
			OFFSET -0.279200 12.230698 -2.892100
			CHANNELS 3 Xrotation Yrotation Zrotation
			JOINT Spine1
			{
				OFFSET -0.232667 10.192268 -1.242267
				CHANNELS 3 Xrotation Yrotation Zrotation
				JOINT Spine1_split
				{
					OFFSET -0.232667 10.192268 -1.242267
					CHANNELS 3 Xrotation Yrotation Zrotation
					JOINT Spine2
					{
						OFFSET -0.232667 10.192268 -1.242267
						CHANNELS 3 Xrotation Yrotation Zrotation
						JOINT Neck_virtual
						{
							OFFSET 0.000000 0.000000 0.000000
							CHANNELS 3 Xrotation Yrotation Zrotation
							JOINT Neck
							{
								OFFSET -0.418800 17.814194 8.416900
								CHANNELS 3 Xrotation Yrotation Zrotation
								JOINT Head
								{
									OFFSET 0.000000 7.031097 3.806800
									CHANNELS 3 Xrotation Yrotation Zrotation
									JOINT HeadTop_End
									{
										OFFSET 0.000000 24.646606 12.978600
										CHANNELS 3 Xrotation Yrotation Zrotation
										End Site
										{
											OFFSET 0 0 0
										}
									}
								}
							}
						}
						JOINT LeftShoulder_virtual
						{
							OFFSET 0.000000 0.000000 0.000000
							CHANNELS 3 Xrotation Yrotation Zrotation
							JOINT LeftShoulder
							{
								OFFSET 8.476499 7.247704 -3.868750
								CHANNELS 3 Xrotation Yrotation Zrotation
								JOINT LeftShoulder_split
								{
									OFFSET 8.476499 7.247704 -3.868750
									CHANNELS 3 Xrotation Yrotation Zrotation
									JOINT LeftArm
									{
										OFFSET 9.308998 -2.777710 0.208600
										CHANNELS 3 Xrotation Yrotation Zrotation
										JOINT LeftForeArm
										{
											OFFSET 29.972298 0.000000 0.000000
											CHANNELS 3 Xrotation Yrotation Zrotation
											JOINT LeftHand
											{
												OFFSET 26.026505 0.000000 0.000000
												CHANNELS 3 Xrotation Yrotation Zrotation
												End Site
												{
													OFFSET 0 0 0
												}
											}
										}
									}
								}
							}
						}
						JOINT RightShoulder_virtual
						{
							OFFSET 0.000000 0.000000 0.000000
							CHANNELS 3 Xrotation Yrotation Zrotation
							JOINT RightShoulder
							{
								OFFSET -7.570500 7.247704 -3.868750
								CHANNELS 3 Xrotation Yrotation Zrotation
								JOINT RightShoulder_split
								{
									OFFSET -7.570500 7.247704 -3.868750
									CHANNELS 3 Xrotation Yrotation Zrotation
									JOINT RightArm
									{
										OFFSET -9.308998 -2.777710 0.208500
										CHANNELS 3 Xrotation Yrotation Zrotation
										JOINT RightForeArm
										{
											OFFSET -29.972300 0.000000 0.000000
											CHANNELS 3 Xrotation Yrotation Zrotation
											JOINT RightHand
											{
												OFFSET -26.026505 0.000000 0.000000
												CHANNELS 3 Xrotation Yrotation Zrotation
												End Site
												{
													OFFSET 0 0 0
												}
											}
										}
									}
								}
							}
						}
					}
				}
			}
		}
	}
}
MOTION
Frames: 6
Frame Time: 0.03333333
4.885850 140.245605 11.404669 0.000000 0.000000 0.000000 10.816231 -31.301360 5.761917 -74.550886 -4.292463 29.650975 65.386958 -10.823840 4.384399 17.139378 6.358641 -13.404105 -8.321217 2.766715 -2.335137 0.000000 0.000000 0.000000 10.644273 -31.984437 5.426288 -109.035016 -20.095468 -7.832556 91.530245 22.076763 3.097744 27.233103 16.351691 33.832823 15.567441 -48.656813 -58.305077 0.000000 0.000000 0.000000 12.745377 -25.241142 6.231394 22.746162 -0.092669 -11.156641 12.946946 -3.206392 -0.171136 0.222317 0.219955 0.035565 0.000000 0.000000 0.000000 14.116974 -1.395107 -0.745738 2.056962 -1.158721 -5.487748 -20.239695 39.119266 -16.460010 0.000000 0.000000 0.000000 14.354124 -2.888764 -2.085185 13.554327 -5.673985 -2.299621 1.681374 -2.347347 -2.163034 -68.729885 -3.816637 9.651666 49.779764 -2.498640 25.734573 0.000000 0.000000 0.000000 18.978970 -1.416798 -0.705334 3.205596 16.769132 -6.730295 8.616734 6.961119 1.535169 -42.802572 -10.014952 -4.880141 -68.399222 49.080841 43.144444 0.000000 0.000000 0.000000 
4.899737 140.250977 11.497245 0.000000 0.000000 0.000000 10.850199 -31.224831 5.729407 -74.643927 -4.245721 29.693278 65.388208 -10.817389 4.353360 17.281914 6.358499 -13.418288 -8.365856 2.772688 -2.344469 0.000000 0.000000 0.000000 10.663916 -31.818539 5.356505 -108.975361 -20.036461 -7.673256 91.613607 22.001564 3.001885 27.174140 16.358607 33.897133 15.523524 -48.534088 -58.224439 0.000000 0.000000 0.000000 12.754346 -25.055058 6.137493 22.786397 -0.160684 -11.180392 13.015749 -3.257615 -0.130732 0.232601 0.210608 0.024803 0.000000 0.000000 0.000000 14.202590 -1.423503 -0.749280 2.018312 -1.098673 -5.507776 -20.476258 39.472947 -16.233825 0.000000 0.000000 0.000000 14.424077 -2.929016 -2.008432 13.760098 -6.075338 -1.380270 1.692944 -2.342483 -1.676981 -69.851122 -4.908673 9.886521 49.346071 -2.128170 25.397929 0.000000 0.000000 0.000000 19.020082 -1.473399 -0.668267 3.292968 16.667260 -7.265493 8.848264 6.768165 0.948822 -43.256230 -9.836215 -5.103756 -68.585358 49.356675 43.270321 0.000000 0.000000 0.000000 
4.917538 140.293045 11.617920 0.000000 0.000000 0.000000 10.860650 -31.000511 5.648656 -74.871577 -4.277563 29.733866 65.468900 -10.887812 4.288107 17.557983 6.325877 -13.378548 -8.359807 2.783523 -2.358399 0.000000 0.000000 0.000000 10.659924 -31.494252 5.241496 -109.148609 -19.919162 -7.523834 91.857609 21.870153 2.889894 27.347584 16.333667 33.917702 14.991601 -48.214227 -58.236481 0.000000 0.000000 0.000000 12.753915 -24.747532 6.041993 22.902661 -0.229607 -11.238275 13.100778 -3.347211 -0.120164 0.237878 0.200936 0.020535 0.000000 0.000000 0.000000 14.325610 -1.484865 -0.776235 1.995888 -1.006248 -5.502040 -20.714690 39.991437 -15.918369 0.000000 0.000000 0.000000 14.526911 -2.992227 -1.943536 14.003000 -6.586111 0.056128 1.811343 -2.238743 -1.610707 -70.950414 -6.978146 10.429368 48.702363 -1.492595 24.763549 0.000000 0.000000 0.000000 19.058683 -1.567343 -0.657789 3.544511 16.482549 -8.448655 8.989363 6.643452 0.949070 -44.074009 -9.750385 -5.417795 -68.842406 49.706241 43.542367 0.000000 0.000000 0.000000 
4.945257 140.375244 11.761695 0.000000 0.000000 0.000000 10.830446 -30.664592 5.509129 -75.159122 -4.388377 29.754336 65.566756 -11.022052 4.205156 17.903263 6.274618 -13.298344 -8.293989 2.799115 -2.378918 0.000000 0.000000 0.000000 10.627044 -31.103363 5.088608 -109.438420 -19.805426 -7.358499 92.159046 21.661506 2.793812 27.678824 16.228002 33.868360 13.974121 -47.728761 -58.369499 0.000000 0.000000 0.000000 12.744393 -24.390363 5.944859 23.046691 -0.280785 -11.304578 13.190475 -3.458411 -0.138993 0.229741 0.199275 0.026883 0.000000 0.000000 0.000000 14.468185 -1.568307 -0.826361 1.999122 -0.882419 -5.466460 -20.896527 40.657743 -15.562432 0.000000 0.000000 0.000000 14.659223 -3.075006 -1.902714 14.264083 -7.161451 1.740289 2.005697 -2.107111 -1.958307 -71.876294 -9.540867 11.009219 47.971823 -0.702112 23.967030 0.000000 0.000000 0.000000 19.107106 -1.679856 -0.680344 3.910308 16.298565 -10.063284 9.115447 6.678501 1.276623 -45.081246 -9.740880 -5.666017 -69.052919 50.028554 43.843036 0.000000 0.000000 0.000000 
4.966851 140.490768 11.922170 0.000000 0.000000 0.000000 10.743773 -30.260217 5.304241 -75.440867 -4.564933 29.746857 65.611992 -11.204666 4.112691 18.260746 6.213919 -13.188373 -8.224390 2.816301 -2.400267 0.000000 0.000000 0.000000 10.542441 -30.710248 4.889752 -109.751079 -19.741192 -7.189796 92.445190 21.369944 2.752320 28.100018 16.044270 33.765836 12.890987 -47.201586 -58.412994 0.000000 0.000000 0.000000 12.722969 -24.026275 5.828377 23.187878 -0.300271 -11.353873 13.281959 -3.578983 -0.187998 0.218639 0.194622 0.026408 0.000000 0.000000 0.000000 14.609957 -1.666568 -0.889917 2.033438 -0.727407 -5.394257 -20.973085 41.436818 -15.228632 0.000000 0.000000 0.000000 14.823102 -3.172793 -1.883681 14.527650 -7.741266 3.456178 2.290995 -1.946829 -2.368446 -72.562284 -12.254252 11.391746 47.247786 0.106726 23.169381 0.000000 0.000000 0.000000 19.185721 -1.800623 -0.729618 4.339958 16.212135 -11.791423 9.088493 6.725354 1.629083 -46.191709 -9.646943 -5.813665 -69.117266 50.214690 44.059918 0.000000 0.000000 0.000000 
4.976176 140.635437 12.078038 0.000000 0.000000 0.000000 10.609698 -29.877460 5.048509 -75.657582 -4.782387 29.732920 65.615879 -11.422318 4.026717 18.621942 6.148501 -13.069149 -8.191719 2.833007 -2.423714 0.000000 0.000000 0.000000 10.394981 -30.407726 4.649965 -109.992786 -19.766185 -7.029732 92.674213 21.049786 2.778981 28.521600 15.840846 33.668355 12.055137 -46.717483 -58.225409 0.000000 0.000000 0.000000 12.682948 -23.734072 5.681852 23.307297 -0.281328 -11.370829 13.381532 -3.702503 -0.256546 0.219947 0.200071 0.030944 0.000000 0.000000 0.000000 14.733509 -1.773518 -0.949601 2.069973 -0.539413 -5.280653 -20.917200 42.276631 -14.975752 0.000000 0.000000 0.000000 15.014789 -3.279732 -1.880604 14.760992 -8.294489 4.960016 2.458170 -1.888924 -2.838618 -72.979116 -14.711126 11.581909 46.552141 0.728820 22.494200 0.000000 0.000000 0.000000 19.314143 -1.924460 -0.801470 4.797457 16.303185 -13.369906 8.897177 6.672279 1.955914 -47.234412 -9.322494 -5.782190 -68.972944 50.202519 44.106356 0.000000 0.000000 0.000000 
